<?xml version="1.0" encoding="UTF-8"?>
<svg width="4316px" height="410px" viewBox="0 0 4316 410" version="1.1" xmlns="http://www.w3.org/2000/svg" xmlns:xlink="http://www.w3.org/1999/xlink">
    <!-- Generator: Sketch 47.1 (45422) - http://www.bohemiancoding.com/sketch -->
    <title>front</title>
    <desc>Created with Sketch.</desc>
    <defs></defs>
    <g id="Mountain" stroke="none" stroke-width="1" fill="none" fill-rule="evenodd">
        <g id="Mountains-Copy-5" transform="translate(-178.000000, -219.000000)">
            <g id="front" transform="translate(178.000000, 219.000000)">
                <g id="Group-4" transform="translate(3728.000000, 0.000000)">
                    <path d="M0.61328125,410 L116.809902,228.340028 C219.79986,76.9116882 289.208892,0.800989461 325.036998,0.00793165356 C360.865103,-0.785126154 407.806424,57.8930866 465.860961,176.04257 L588,410 L0.61328125,410 Z" id="Path-38" fill="#FFFFFF"></path>
                    <path d="M116,227 C218.974893,76.4603271 288.373771,0.796288804 324.196636,0.00788510615 C360.019501,-0.780518592 406.953956,57.5533374 465,175.009453 C407.623551,147.019783 355.146591,136.568757 307.569119,143.656375 C259.991647,150.743994 196.135274,178.525202 116,227 Z" id="Path-38" fill="#EBF0F6"></path>
                </g>
                <g id="Group" transform="translate(0.000000, 29.000000)">
                    <g id="Group-2">
                        <path d="M742.451883,380.912864 L0,380.912864 C75.8633585,266.831692 118.963962,204.041321 129.30181,192.541751 C139.639658,181.042181 139.639658,193.998778 129.30181,231.411542 C148.932888,176.104415 166.81133,136.775056 182.937135,113.423465 C199.06294,90.0718737 229.066687,53.1728125 272.948376,2.72628094 C274.890591,-3.42893767 281.086723,0.838480917 291.536771,15.5285367 C307.211842,37.5636204 378.802988,81.7063511 382.07032,101.685472 C384.092323,114.049634 454.699876,163.331259 483.612982,190.456432 C495.484503,201.593839 581.764136,265.079317 742.451883,380.912864 Z" id="Path-13" fill="#FFFFFF"></path>
                        <path d="M182.937135,113.423465 C199.06294,90.0718737 229.066687,53.1728125 272.948376,2.72628094 C274.890591,-3.42893767 281.086723,0.838480917 291.536771,15.5285367 C307.211842,37.5636204 378.802988,81.7063511 382.07032,101.685472 C384.092323,114.049634 389.075777,113.423465 408.021868,134.864858 C411.760602,139.096003 376.279686,113.282928 358.971408,113.423465 C349.18868,113.502897 364.131898,140.093012 348.519566,140.092446 C339.41671,140.092115 331.527927,125.478519 321.547345,125.297335 C305.011846,124.997157 285.908233,138.949762 269.382915,137.970549 C247.473222,136.672282 242.182817,121.517676 226.459414,118.560205 C204.883891,114.501988 177.158611,121.791278 182.937135,113.423465 Z" id="Path-13" fill="#EBF0F6"></path>
                    </g>
                </g>
                <g id="Group-3" transform="translate(1007.000000, 0.000000)">
                    <path d="M188.343967,300.471225 C202.4799,286.979548 228.915169,261.883829 267.649774,225.184069 C306.38438,188.484308 334.214193,164.04247 351.139213,151.858554 C351.139213,150.037431 351.139213,154.269857 351.139213,164.555832 C351.139213,179.984795 362.84019,166.357283 381.596922,140.074649 C394.10141,122.552893 416.428759,92.4940501 448.578971,49.8981213 C458.758405,25.4909446 475.578407,34.4185716 499.038976,76.6810024 C522.499545,118.943433 546.973661,130.325455 572.461324,110.827068 C619.172426,27.5743698 645.717598,-8.77409363 652.09684,1.78167777 C658.476083,12.3374492 718.045803,66.5955006 830.806001,164.555832 C1019.58469,326.540271 1110.52798,407.943742 1103.63586,408.766245 C1096.74374,409.588748 728.865116,410 0,410 L188.343967,300.471225 Z" id="Path-14" fill="#FFFFFF"></path>
                    <path d="M267.049042,225.105403 C305.849768,188.418463 333.727087,163.985163 350.680998,151.805504 C350.680998,149.985017 350.680998,154.215964 350.680998,164.498346 C350.680998,179.921919 362.401949,166.299168 381.190699,140.025715 C393.716533,122.51008 416.081995,92.4617383 448.287087,49.8806899 C458.483899,25.4820396 475.332613,34.4065478 498.833229,76.6542147 C522.333845,118.901882 546.849739,130.279927 572.38091,110.788352 C619.171748,27.564737 645.762233,-8.77102849 652.152366,1.78105535 C658.542498,12.3331392 718.213905,66.5722361 831.166586,164.498346 C846.035002,175.146695 852.944936,182.18508 851.896389,185.613502 C848.55236,196.547427 818.833796,199.835432 809.981975,199.122724 C792.862108,197.744309 724.223389,153.082808 716.847805,154.422586 C695.42874,158.313368 704.602969,188.694077 692.699118,189.952357 C678.786198,191.423002 635.28903,180.469634 626.662928,181.834291 C607.561342,184.85618 584.201166,212.486173 572.38091,213.357968 C546.087847,215.297196 500.041639,179.569628 485.398223,181.834291 C456.247051,186.342638 431.029546,222.935797 415.820728,225.105403 C389.337531,228.883349 380.120705,223.652287 366.629955,225.105403 C343.387122,227.608935 343.015586,210.290718 332.513948,210.201063 C299.808154,209.921846 254.840701,236.648657 267.049042,225.105403 Z" id="Path-14" fill="#EBF0F6"></path>
                </g>
                <g id="Group-5" transform="translate(2394.000000, 18.000000)">
                    <path d="M0,392 L184.191663,197.79132 C184.191663,211.27256 184.191663,223.942015 184.191663,235.799688 C184.191663,247.65736 195.546266,243.962102 218.255472,224.713914 C292.383968,136.567348 336.655154,84.1744564 351.069028,67.5352378 C372.689839,42.57641 390.198284,44.8006033 396.340359,56.1679206 C400.435076,63.7461321 418.267098,91.9004782 449.836424,140.630959 L477.246318,210.770474 L497.490457,245.991561 L497.490457,153.757923 L530.618835,197.79132 L641.229141,0 L769.171396,153.757923 L769.171396,90.5795701 L934.707388,298.372722 L1045,392 L0,392 Z" id="Path-37" fill="#FFFFFF"></path>
                    <path d="M184.342489,197.677321 C184.342489,211.150791 184.342489,223.812944 184.342489,235.663782 C184.342489,247.51462 195.6957,243.821492 218.402121,224.584398 C292.521526,136.488636 336.787281,84.1259416 351.199388,67.4963132 C372.817548,42.5518706 390.323845,44.774782 396.465168,56.1355476 C400.559382,63.7093913 418.389217,91.8475104 449.954672,140.549905 L477.361204,210.648994 L497.602861,245.849781 L497.602861,153.669303 L530.727176,197.677321 L641.323917,0 L769.25048,153.669303 L769.25048,90.5273637 L873,224.584398 C843.42871,204.892404 828.643066,200.247269 828.643066,210.648994 C828.643066,226.251581 815.371088,193.934951 794.989326,193.934951 C794.989326,193.934951 736.699708,223.87391 732.473137,224.584398 C728.246567,225.294885 602.441874,236.102384 590.975664,235.663782 C578.829742,235.199179 530.727176,287.441438 530.727176,285.869221 C530.727176,284.297004 396.465168,234.767069 396.465168,240.186985 C396.465168,240.186985 329.232069,288.840779 330.675372,285.869221 C331.887165,283.374308 303.43649,268.146896 245.323347,240.186985 C204.669442,270.641809 184.342489,285.869221 184.342489,285.869221 C184.342489,285.869221 165.894993,276.211984 129,256.89751 L184.342489,197.677321 Z" id="Path-37" fill="#EBF0F6"></path>
                </g>
            </g>
        </g>
    </g>
</svg>