<?xml version="1.0" encoding="UTF-8"?>
<svg width="800px" height="156px" viewBox="0 0 800 156" version="1.1" xmlns="http://www.w3.org/2000/svg" xmlns:xlink="http://www.w3.org/1999/xlink">
    <!-- Generator: Sketch 47.1 (45422) - http://www.bohemiancoding.com/sketch -->
    <title>front</title>
    <desc>Created with Sketch.</desc>
    <defs></defs>
    <g id="Mountain" stroke="none" stroke-width="1" fill="none" fill-rule="evenodd">
        <g id="Final-Copy-2" transform="translate(-6.000000, -60.000000)">
            <g id="front" transform="translate(6.000000, 60.000000)">
                <g id="Group" transform="translate(0.000000, 10.990052)">
                    <g id="Group-2">
                        <path d="M281.364996,144.353525 L0,144.353525 C28.7497332,101.12049 45.083453,77.3249914 49.0011596,72.9670302 C52.9188661,68.609069 52.9188661,73.5191957 49.0011596,87.6974104 C56.4406966,66.737817 63.2160416,51.8332755 69.3271946,42.9837858 C75.4383476,34.1342961 86.808787,20.1507579 103.438513,1.03317136 C104.174549,-1.2994553 106.52268,0.317756861 110.482907,5.88480785 C116.423247,14.2353843 143.553951,30.9640364 144.792163,38.5354702 C145.558436,43.2210836 172.316391,61.8972086 183.273513,72.1767624 C187.772431,76.3974758 220.469592,100.456397 281.364996,144.353525 Z" id="Path-13" fill="#FFFFFF"></path>
                        <path d="M69.3271946,42.9837858 C75.4383476,34.1342961 86.808787,20.1507579 103.438513,1.03317136 C104.174549,-1.2994553 106.52268,0.317756861 110.482907,5.88480785 C116.423247,14.2353843 143.553951,30.9640364 144.792163,38.5354702 C145.558436,43.2210836 147.447002,42.9837858 154.626951,51.1093729 C156.043809,52.7128387 142.597702,42.9305269 136.03843,42.9837858 C132.331096,43.013888 137.994087,53.0906727 132.077524,53.0904578 C128.627839,53.0903326 125.638248,47.5522571 121.855934,47.4835946 C115.58952,47.3698369 108.349875,52.6574182 102.08732,52.2863282 C93.7842624,51.7943276 91.7793717,46.0512272 85.8207158,44.9304425 C77.6442979,43.3925109 67.1373228,46.1549136 69.3271946,42.9837858 Z" id="Path-13" fill="#EBF0F6"></path>
                    </g>
                </g>
                <g id="Group-3" transform="translate(381.620085, 0.000000)">
                    <path d="M71.3762072,113.868773 C76.7332637,108.755868 86.7513667,99.2454113 101.430516,85.3374016 C116.109666,71.429392 126.656255,62.1667343 133.070284,57.5494284 C133.070284,56.8592822 133.070284,58.4632332 133.070284,62.3612817 C133.070284,68.2083543 137.504572,63.0439727 144.612761,53.0837134 C149.351553,46.4435405 157.812888,35.0522217 169.996768,18.909757 C173.854441,9.66023479 180.228672,13.0435136 189.11946,29.0595935 C198.010249,45.0756734 207.285139,49.3890877 216.944131,41.9998363 C234.646111,10.4497849 244.705864,-3.3250947 247.123388,0.675197638 C249.540913,4.67548997 272.11589,25.237518 314.848319,62.3612817 C386.389273,123.748089 420.853806,154.597344 418.241917,154.909046 C415.630028,155.220748 276.216055,155.376599 0,155.376599 L71.3762072,113.868773 Z" id="Path-14" fill="#FFFFFF"></path>
                    <path d="M101.202858,85.3075899 C115.907065,71.4044389 126.471658,62.145017 132.896636,57.5293241 C132.896636,56.839419 132.896636,58.4428097 132.896636,62.3394964 C132.896636,68.1845264 137.338493,63.0219489 144.458815,53.0651691 C149.205697,46.4273159 157.681476,35.0399766 169.886153,18.9031511 C173.750412,9.65686009 180.135523,13.038957 189.041489,29.0494419 C197.947454,45.0599267 207.238177,49.3718341 216.913656,41.9851641 C234.645854,10.4461343 244.722779,-3.32393311 247.14443,0.674961764 C249.566082,4.67385664 272.179594,25.2287015 314.984969,62.3394964 C320.619612,66.3748725 323.238252,69.0421905 322.840886,70.3414504 C321.573609,74.4850504 310.311244,75.7310971 306.956694,75.4610037 C300.468824,74.9386297 274.456992,58.0133807 271.661887,58.5211126 C263.544762,59.9955918 267.021495,71.5088875 262.510324,71.9857344 C257.237782,72.5430609 240.753777,68.3920924 237.484767,68.909253 C230.24589,70.05445 221.393147,80.5253144 216.913656,80.8556962 C206.949445,81.5906 189.499437,68.0510196 183.950061,68.909253 C172.902719,70.6177688 163.346109,84.4853803 157.582464,85.3075899 C147.546199,86.7393079 144.053322,84.7569065 138.940769,85.3075899 C130.132495,86.2563468 129.991695,79.6933085 126.011918,79.6593322 C113.617491,79.5535183 96.5762961,89.6821061 101.202858,85.3075899 Z" id="Path-14" fill="#EBF0F6"></path>
                </g>
            </g>
        </g>
    </g>
</svg>