<?xml version="1.0" encoding="UTF-8"?>
<svg width="4655px" height="541px" viewBox="0 0 4655 541" version="1.1" xmlns="http://www.w3.org/2000/svg" xmlns:xlink="http://www.w3.org/1999/xlink">
    <!-- Generator: Sketch 47.1 (45422) - http://www.bohemiancoding.com/sketch -->
    <title>Path 9 Copy</title>
    <desc>Created with Sketch.</desc>
    <defs></defs>
    <g id="Mountain" stroke="none" stroke-width="1" fill="none" fill-rule="evenodd" opacity="0.900000036">
        <g id="Final-Copy" transform="translate(0.000000, -40.000000)" fill="#EEF7F7">
            <path d="M0,581 C121.51518,453.340413 193.06843,381.507703 214.659753,365.501872 C236.251075,349.49604 225.455414,376.429274 182.272769,446.301574 C341.370675,272.427209 444.039283,184.775032 490.278593,183.345044 C536.517904,181.915056 667.660373,280.759846 883.706001,479.879414 C956.654057,374.870504 1027.57838,321.197568 1096.47896,318.860606 C1165.37955,316.523644 1239.00482,365.293764 1317.35477,465.170966 C1590.89725,248.009894 1750.39118,132.442486 1795.83655,118.468743 C1841.28193,104.495 1907.08539,171.292287 1993.24695,318.860606 C1999.81636,235.638167 2003.99533,194.894259 2005.78386,196.628881 C2008.46666,199.230814 2176.6513,479.879414 2208.3507,479.879414 C2240.0501,479.879414 2546.85794,49.9959678 2620.07053,40.1634558 C2693.28311,30.3309438 3028.76698,467.321324 3114.11236,479.879414 C3199.45774,492.437505 3443.36375,238.835033 3469.03904,245.194717 C3486.1559,249.434506 3612.5595,316.470125 3848.24985,446.301574 C4024.16137,238.820697 4129.20551,129.543087 4163.38228,118.468743 C4197.55905,107.394399 4361.43162,261.571485 4655,581 L0,581 Z" id="Path-9-Copy"></path>
        </g>
    </g>
</svg>